<?xml version="1.0" encoding="UTF-8" standalone="no"?>
<svg
   xmlns:dc="http://purl.org/dc/elements/1.1/"
   xmlns:cc="http://creativecommons.org/ns#"
   xmlns:rdf="http://www.w3.org/1999/02/22-rdf-syntax-ns#"
   xmlns:svg="http://www.w3.org/2000/svg"
   xmlns="http://www.w3.org/2000/svg"
   xmlns:sodipodi="http://sodipodi.sourceforge.net/DTD/sodipodi-0.dtd"
   xmlns:inkscape="http://www.inkscape.org/namespaces/inkscape"
   inkscape:version="1.0 (4035a4fb49, 2020-05-01)"
   sodipodi:docname="logo_main_inverse.svg"
   id="svg58"
   version="1.1"
   role="img"
   aria-labelledby="oregonliveLogoTitle oregonliveLogoDesc"
   viewBox="0 0 237.06934 42.599998"
   height="42.599998"
   width="237.06934">
  <metadata
     id="metadata64">
    <rdf:RDF>
      <cc:Work
         rdf:about="">
        <dc:format>image/svg+xml</dc:format>
        <dc:type
           rdf:resource="http://purl.org/dc/dcmitype/StillImage" />
      </cc:Work>
    </rdf:RDF>
  </metadata>
  <defs
     id="defs62" />
  <sodipodi:namedview
     inkscape:current-layer="svg58"
     inkscape:window-maximized="1"
     inkscape:window-y="-8"
     inkscape:window-x="-8"
     inkscape:cy="-19.473958"
     inkscape:cx="133.41159"
     inkscape:zoom="2.8284271"
     showgrid="false"
     id="namedview60"
     inkscape:window-height="1017"
     inkscape:window-width="1920"
     inkscape:pageshadow="2"
     inkscape:pageopacity="0"
     guidetolerance="10"
     gridtolerance="10"
     objecttolerance="10"
     borderopacity="1"
     bordercolor="#666666"
     pagecolor="#ffffff" />
  <title
     id="oregonliveLogoTitle">oregonlive.com logo</title>
  <desc
     id="oregonliveLogoDesc">The OREGONLIVE.com black lettering on a transparent background</desc>
  <g
     transform="translate(-112.93066,-57.4)"
     id="g1178">
    <path
       d="m 131.2,86.3 c 0,0 -2.4,1.1 -4.5,0.7 -2.9,-0.5 -4.3,-1.4 -5.1,-2.1 0.9,-0.5 3.7,-2.2 4.8,-3.3 1.3,-1.2 2.6,-1.7 2.6,-5.8 -0.1,-3.7 0,-9.3 0,-10 0.8,0.2 1.5,0.4 2.2,0.6 z m 1,-0.4 V 66.4 c 0,0 3.3,0.5 5,-1.9 1.8,-2.3 1.2,-5 -0.3,-6.2 -1.6,-1.2 -2.9,-0.9 -3.8,-0.6 0,0 3.2,0.6 2.1,2.7 -0.8,1.6 -4.6,0.6 -5.8,0.2 -1.1,-0.4 -9.5,-4.3 -14.4,-0.3 -1.6,1.4 -1.4,5 0.2,6.4 l 0.5,0.2 c 0,0 -1,-2.4 1.1,-3.4 2.1,-1 4.3,-0.2 5,0 2,0.4 4.7,1.4 7.1,2.2 -0.5,0.3 -2.9,1.7 -5.6,4 0,0 0.2,7.6 0.1,9.9 -0.1,2.4 -1.1,4.1 -2.3,4.7 -0.1,0 -0.1,0 -0.2,-0.1 0,0 -2.8,-1.9 -3.2,-5.9 -0.4,-4.1 0.9,-9.9 5.6,-12.4 0,0 -6.5,0.4 -9.3,7.2 -2.8,6.7 0.2,15.1 5.5,18.1 2.9,1.5 16.4,5.1 19.4,-11.3 0,0 -2.5,4.6 -6.7,6 z"
       id="path26"
       style="fill:#000000" />
    <path
       d="m 274.8,86.6 -1,0.7 -4.1,-2.9 V 72.2 l 0.9,-0.6 4.2,2.9 z m -10,-12.2 v 12.3 l 5.7,4 9.1,-5.9 V 72.6 l -5.7,-4.1 z"
       id="path28"
       style="fill:#000000" />
    <path
       d="m 322.6,86.2 c -0.4,0.2 -0.9,0.4 -1.6,0.6 -1.2,0.2 -3.2,-0.4 -3.8,-2.2 -0.6,-1.8 -0.4,-4.1 1.2,-5.5 0.6,-0.6 1.6,-1.3 2.8,-1.5 l 1.4,1.1 z m -5.3,-12.6 2.5,-2 2.8,2.1 v 4.1 z m 9.7,-1.7 -4.4,-3.4 -2.8,2.4 -3,-2.4 -3.4,2.9 7.1,5.7 c 0,0 -4.3,1.8 -5.9,3.7 -1.5,1.9 -2.7,5.2 0,8.4 1.2,1.5 4.1,1.5 4.1,1.5 l 4,-3.4 3.7,3.4 3.2,-2.6 -2.6,-2.4 z"
       id="path30"
       style="fill:#000000" />
    <polyline
       points="307.4 60.2 304.6 57.4 301.9 60.2 304.6 63 307.4 60.2"
       id="polyline32"
       style="fill:#000000" />
    <path
       d="m 227.8,69.6 c -3.1,2.8 -4.8,3.7 -4.8,3.7 v -2.1 l -1.9,-2.7 c -1.2,0.9 -4.4,3 -4.4,3 l 0.4,0.6 1.5,-0.9 v 16.1 l 3.9,3.4 3,-3.2 -2.5,-2.3 V 74.5 l 2.2,-1.5 c 4.9,3.1 6.3,-1.8 6.3,-1.8 -2.2,1.1 -3.7,-1.6 -3.7,-1.6"
       id="path34"
       style="fill:#000000" />
    <polyline
       points="308.2 71.5 304.4 68.5 300 71.7 300.7 72.3 302 71.6 303.2 72.5 303.1 87.5 307.2 90.7 311.1 87.9 308.1 85.5 308.2 71.5"
       id="polyline36"
       style="fill:#000000" />
    <path
       d="M 204.4,88.3 V 64.1 c 2,1.3 4.3,4.2 5.2,10.4 0.5,4.1 -0.6,11.1 -5.2,13.8 z m 0.1,-30.9 -8.4,8.5 v 13.7 c 0,0 0,2.4 -1.7,3.7 -0.4,0.4 -0.9,0.7 -1.1,0.9 h 1 l 6.8,-4.9 V 63 c 0,0 1,-0.1 2.4,0.6 v 25.2 c -1.2,0.5 -2.5,0.8 -4,0.7 -3.7,-0.1 -6.5,-5.3 -6.5,-5.3 h 0.1 c -0.6,-1.1 -1.1,-2.3 -1.4,-3.7 -1.1,-5.6 -0.4,-10.4 1.1,-14 1.3,-2.9 2.8,-4 3.9,-4.6 1.6,-0.9 3.6,-1.1 2,-1.2 -0.8,-0.1 -4,0.2 -7,2.4 -2,1.6 -6.8,5.9 -6.5,13.9 0.3,9.2 6.9,14.5 15.7,13.6 6.7,-0.6 13.9,-6.9 13.9,-16.3 0,-14 -10.3,-16.9 -10.3,-16.9 z"
       id="path38"
       style="fill:#000000" />
    <polyline
       points="299.1 72.3 294.9 68.5 289.7 72.7 285.2 68.7 281.5 71.7 282 72.2 282.9 71.5 284.8 73.2 284.8 85.6 283.6 87.3 287.2 90.7 290.7 87.3 289.5 85.6 289.5 74.2 292.4 71.8 294.7 73.8 294.7 87.3 298.5 90.7 301.9 88 299.1 85.5 299.1 72.3"
       id="polyline40"
       style="fill:#000000" />
    <polyline
       points="347.2 72.3 343.1 68.5 337.8 72.7 333.3 68.7 329.6 71.7 330.2 72.2 331.1 71.5 333 73.2 333 85.6 331.7 87.3 335.3 90.7 338.8 87.3 337.7 85.6 337.7 74.2 340.6 71.8 342.9 73.8 342.9 87.3 346.7 90.7 350 88 347.2 85.5 347.2 72.3"
       id="polyline42"
       style="fill:#000000" />
    <polyline
       points="156.4 72.7 152.3 69.5 146.8 73.9 146.8 65.4 146.8 61.1 140.7 66.1 141.2 66.6 142.1 66 142.1 87.3 140.8 88.9 144.5 92.6 148 88.9 146.8 87.3 146.8 75.3 149.5 73.1 152 75 152 89.7 155.8 92.6 159.3 89.4 156.4 87.2 156.4 72.7"
       id="polyline44"
       style="fill:#000000" />
    <path
       d="m 255.6,88.2 -0.4,0.3 -3.9,-3.1 v -13 l 0.7,-0.5 3.6,2.8 z m 4.7,-14.9 2.1,-1.6 -1,-0.8 -1.8,1.3 -4.7,-3.7 -8.4,6.1 v 13.1 c 0,0 4.1,3.2 6,4.7 l 3.6,-2.5 c 0.4,0.7 2.5,4.7 2.5,5 0,0.2 -1.2,0.9 -2.4,1 -0.4,-0.1 -0.8,-0.1 -1.2,-0.3 -1.3,-0.7 -2.3,-1.6 -4.5,-1.5 -0.6,0 -1.2,0 -2.1,0.2 -2.7,0.5 -4.1,3.2 -3.9,4.1 0,0 0.2,-0.1 0.6,-0.3 0.6,-0.1 1.3,-0.2 1.9,-0.2 1.4,0 3.3,0.3 5.1,2.1 0.3,-0.6 1.9,-3 3.8,-3.1 1.9,-0.2 7.1,-0.4 7.1,-3 -0.1,-1.8 -2.7,-5.3 -2.7,-8.3 0,-1.6 0,-12.3 0,-12.3 z"
       id="path46"
       style="fill:#000000" />
    <path
       d="m 238.1,72.5 0.6,-0.5 3.3,5 -3.9,2.8 z m 7.8,13.1 -2.9,2 c 0,0 -4.6,-4 -4.8,-4.3 -0.1,-0.4 -0.1,-0.9 -0.1,-0.9 v -1.6 l 7.8,-5.7 c -2.7,-4.1 -4.3,-6.6 -4.3,-6.6 l -8.3,5.4 V 83 c 0,0 0,1.3 0.2,1.9 0.3,0.8 0.8,1.1 0.8,1.1 l 5.8,4.7 6.2,-4.4 z"
       id="path48"
       style="fill:#000000" />
    <path
       d="m 163.8,72.5 0.6,-0.4 3.3,5.3 -3.9,3 z m 4.8,16.1 c 0,0 -4.6,-4.2 -4.7,-4.6 -0.1,-0.4 -0.1,-0.9 -0.1,-0.9 v -1.7 l 7.7,-6.1 c -2.7,-4.3 -4.2,-6.9 -4.2,-6.9 l -8.2,5.7 v 9.6 c 0,0 0,1.4 0.2,2 0.3,0.9 0.8,1.2 0.8,1.2 l 5.7,5 6.1,-4.7 -0.5,-0.7 z"
       id="path50"
       style="fill:#000000" />
  </g>
</svg>
